<svg width="120" height="120" viewBox="0 0 120 120" fill="none" xmlns="http://www.w3.org/2000/svg">
<g clip-path="url(#clip0_104_663)">
<path d="M9.00703 68.2088C8.48847 77.4613 12.5354 89.5572 13.8882 91.8251C14.3391 92.5699 14.5646 93.45 14.542 94.3414C14.4293 99.0353 17.2475 101.179 19.3105 102.116C20.5392 102.68 21.4523 103.82 21.7341 105.241C23.3236 113.501 32.0827 111.876 37.0878 110.217C39.2297 109.506 41.5857 110.341 42.837 112.214C43.2541 112.35 43.5359 113.219 43.9643 113.343L45.0916 113.817C46.1287 118.443 56.6463 118.601 58.6191 117.856C59.3292 117.585 65.7773 117.676 66.5101 117.856C67.5021 118.104 69.0127 118.849 69.892 118.985C72.8793 119.425 76.7684 116.784 78.9103 114.471C80.2066 113.061 80.3419 112.124 81.1649 111.086C81.7736 110.308 84.7384 110.116 85.674 109.958C93.2494 108.705 93.9821 104.835 94.6923 102.059C95.0192 100.762 98.0404 100.265 99.2015 99.8026C109.775 95.5938 104.849 85.6418 103.711 81.749C103.339 80.4852 105.74 82.4486 106.416 81.3428C112.752 70.9394 105.796 71.6615 107.093 69.3371C108.039 67.6446 108.22 59.182 105.965 55.7969C104.939 54.2511 105.909 52.7955 104.838 51.2836L99.2015 46.7702C98.0855 43.0127 96.2029 39.8759 93.565 38.8717C89.6759 37.3936 84.9976 38.3639 85.674 30.9733C86.0911 26.3696 81.4579 27.6785 77.783 25.3315C74.8408 23.4584 71.6618 22.3188 68.7647 23.0748C65.8675 23.8308 63.2409 26.4599 59.7463 26.4599C56.6801 26.4599 55.9812 23.2892 52.9826 23.0748C47.6843 22.6912 47.2447 24.0678 42.837 26.4599C42.0253 25.5346 33.6158 28.2539 32.6914 28.7166C30.4368 29.8449 28.8586 33.1058 27.0549 34.3583C23.9662 36.4909 22.2865 34.0988 21.4185 35.4867C20.6068 36.7843 19.3443 40.0678 18.0366 40.0001C14.7449 39.8308 13.0878 41.4331 12.8962 44.6601C12.8173 46.0142 12.4904 47.4133 11.6674 48.2709C10.5627 49.4218 10.6303 55.6841 11.2616 58.0536C11.1151 58.426 12.3664 58.426 12.2198 58.7984C9.73977 60.2426 9.28885 65.749 9.00703 69.3371" fill="#89A45F"/>
<path d="M35.3179 32.1241C35.3179 32.1241 34.3034 24.5303 39.8609 26.5726C40.9431 26.9676 42.1042 26.8773 43.0624 26.2454C45.937 24.3611 52.2273 21.1453 56.7815 25.3879C58.0554 26.5726 59.7914 26.8096 61.2005 25.9521C65.3038 23.4584 73.2963 19.7123 77.8957 25.0381C78.5044 25.7377 79.2372 26.3018 80.0713 26.4937C82.0441 26.945 85.674 28.4683 85.9333 33.67C86.0009 34.945 86.5533 36.1072 87.4551 36.897C88.6951 37.9915 90.0591 40.0113 89.1235 43.2835" stroke="#231F20" stroke-width="2" stroke-miterlimit="10" stroke-linecap="round"/>
<path d="M99.1902 46.7701C99.1902 46.7701 100.261 47.3005 100.926 48.7335C101.411 49.7828 102.392 50.505 103.542 50.5614C104.691 50.6178 105.954 51.6559 105.954 55.7969" stroke="#231F20" stroke-width="2" stroke-miterlimit="10" stroke-linecap="round"/>
<path d="M107.803 62.8942C107.803 62.8942 108.209 67.0803 106.844 69.337C105.548 71.4696 111.624 71.5825 105.289 81.1734C104.612 82.2002 104.41 83.4527 104.782 84.6262C105.92 88.2143 107.16 96.3949 96.5861 100.265C95.425 100.694 94.5119 101.642 94.185 102.838C93.4748 105.399 91.1526 109.755 83.5885 110.917C82.6528 111.063 81.8074 111.526 81.1986 112.248C80.3757 113.207 79.1357 114.618 77.828 115.915C75.6862 118.048 72.6989 119.075 69.7003 118.668C68.821 118.544 67.8515 118.386 66.8595 118.161C66.1268 117.991 65.3602 118.048 64.65 118.296C62.6773 118.984 58.5176 119.876 57.4805 115.611" stroke="#231F20" stroke-width="2" stroke-miterlimit="10" stroke-linecap="round"/>
<path d="M33.8074 109.958C33.8074 109.958 22.8501 113.941 20.5955 103.188C20.325 101.879 19.4006 100.829 18.1719 100.31C16.1089 99.4415 13.2907 97.4669 13.4034 93.1453C13.426 92.3216 13.2005 91.5092 12.7496 90.8209C10.8445 87.8646 6.60587 79.56 15.7595 74.9789" stroke="#231F20" stroke-width="2" stroke-miterlimit="10" stroke-linecap="round"/>
<path d="M30.4255 36.7842C26.0742 31.6389 21.7228 35.8589 19.5133 38.849C18.6566 40.0112 17.4391 40.8124 16.1315 40.7447C12.8398 40.5867 11.9605 44.4118 11.7689 47.3794C11.69 48.6206 11.363 49.9182 10.5401 50.6967C9.61574 51.5881 10.495 55.605 11.1714 58.1551C11.4983 59.3624 11.2616 60.6262 10.5965 61.6868C10.1343 62.4203 9.68338 63.4809 9.48047 64.9026" stroke="#231F20" stroke-width="2" stroke-miterlimit="10" stroke-linecap="round"/>
<path d="M5.62512 67.0804C5.62512 67.0804 7.8797 69.3371 13.5162 70.4655" stroke="#231F20" stroke-width="2" stroke-miterlimit="10" stroke-linecap="round"/>
<path d="M5.97461 72.4626C5.97461 72.4626 8.10519 73.5459 10.3485 72.993" stroke="#231F20" stroke-width="2" stroke-miterlimit="10" stroke-linecap="round"/>
<path d="M96.6538 35.9604C96.6538 35.9604 94.681 38.8716 95.8083 42.2566" stroke="#231F20" stroke-width="2" stroke-miterlimit="10" stroke-linecap="round"/>
<path d="M29.2982 27.5881C29.2982 27.5881 32.3983 29.0888 31.5866 31.9661" stroke="#231F20" stroke-width="2" stroke-miterlimit="10" stroke-linecap="round"/>
<path d="M44.2573 110.68C44.2573 110.68 41.7097 113.343 41.7097 116.728" stroke="#231F20" stroke-width="2" stroke-miterlimit="10" stroke-linecap="round"/>
<path d="M47.3349 111.086C47.3349 111.086 45.3734 115.599 45.7905 116.728" stroke="#231F20" stroke-width="2" stroke-miterlimit="10" stroke-linecap="round"/>
<path d="M60.7045 71.5938C61.9445 79.4922 55.5077 85.3709 49.5105 84.0056C44.5392 82.8773 38.3165 78.4542 38.3165 71.5938C38.3165 64.7334 43.333 58.0536 49.5105 58.0536C55.6881 58.0536 59.6336 64.8124 60.7045 71.5938Z" fill="white" stroke="#231F20" stroke-width="2" stroke-miterlimit="10" stroke-linecap="round"/>
<path d="M85.3358 67.0804C86.5645 74.8547 80.2179 80.6431 74.3109 79.3004C69.4072 78.1946 63.286 73.8279 63.286 67.0804C63.286 60.3328 68.3024 54.6798 74.3898 54.6798C80.4772 54.6798 84.2874 60.4005 85.3358 67.0804Z" fill="white" stroke="#231F20" stroke-width="2" stroke-miterlimit="10" stroke-linecap="round"/>
<path d="M40.5711 86.2623C40.5711 86.2623 49.5894 84.0056 54.0986 86.2623" stroke="#231F20" stroke-width="2" stroke-miterlimit="10" stroke-linecap="round"/>
<path d="M72.1353 80.6205C72.1353 80.6205 78.1775 77.2355 84.1747 79.4922" stroke="#231F20" stroke-width="2" stroke-miterlimit="10" stroke-linecap="round"/>
<path d="M41.6984 59.1819L59.5322 69.337" stroke="#231F20" stroke-width="2" stroke-miterlimit="10" stroke-linecap="round"/>
<path d="M77.7717 53.5402L63.286 67.0804" stroke="#231F20" stroke-width="2" stroke-miterlimit="10" stroke-linecap="round"/>
<path d="M52.4128 65.979C53.2598 64.3128 52.9345 62.4466 51.686 61.8107C50.4375 61.1748 48.7387 62.01 47.8917 63.6762C47.0446 65.3424 47.37 67.2086 48.6185 67.8445C49.8669 68.4804 51.5657 67.6452 52.4128 65.979Z" fill="#231F20"/>
<path d="M77.3641 72.3759C77.9404 70.5976 77.3273 68.8053 75.9948 68.3727C74.6624 67.9401 73.115 69.0311 72.5388 70.8094C71.9626 72.5877 72.5756 74.38 73.9081 74.8126C75.2406 75.2451 76.7879 74.1542 77.3641 72.3759Z" fill="#231F20"/>
<path d="M0.676331 17.8956L19.7388 10.9901C20.2235 10.866 20.325 11.5091 19.8628 11.7574L10.0667 17.0381C9.88629 17.1396 9.92011 17.3878 10.1117 17.354L21.6777 15.0183C22.1963 14.9168 22.2301 15.6276 21.7228 15.8194L14.0798 18.6967C13.9333 18.7532 13.9333 18.9563 14.0798 18.945L22.0159 18.5839C22.4781 18.5613 22.4668 19.2158 21.9934 19.3963L19.4457 20.378C18.961 20.5698 18.9722 21.2468 19.4457 21.1904L26.1644 20.3667C26.5476 20.3216 26.604 20.818 26.2433 21.0324L21.6552 23.7292" stroke="black" stroke-width="1.2" stroke-miterlimit="10" stroke-linecap="round"/>
<path d="M74.6829 0.677002L54.8426 5.02115C54.3692 5.17912 54.6172 5.78843 55.147 5.74329L72.7102 3.32862C72.9244 3.31734 66.5664 5.21297 66.3861 5.28067L55.3274 9.5007C54.8314 9.69252 55.1808 10.3244 55.7219 10.2116L63.737 8.56417C63.8835 8.53032 71.7182 7.76304 71.5942 7.84202L56.9394 12.7278C56.5336 12.9534 56.8943 13.5063 57.3903 13.4161L60.0733 12.8857C60.5805 12.7842 65.2813 13.2807 64.8304 13.4838L54.3354 16.4852C53.9859 16.6544 54.2001 17.1058 54.6172 17.0945L59.938 16.9365" stroke="black" stroke-width="1.2" stroke-miterlimit="10" stroke-linecap="round"/>
<path d="M119.324 16.4739L96.1691 12.1974C95.4589 12.1072 95.6956 12.8857 96.4509 13.134L112.515 18.3469C112.819 18.4485 112.921 18.7531 112.639 18.7306L95.9436 17.2412C95.1996 17.1735 95.5716 18.0423 96.3607 18.2115L108.175 20.7955C108.4 20.8406 108.524 21.0775 108.333 21.0888L97.5894 21.5514C96.9582 21.574 97.364 22.3639 98.0967 22.5218L102.054 23.4019C102.809 23.5712 103.192 24.3949 102.516 24.3723L93.1254 24.1467C92.5955 24.1354 92.8097 24.7334 93.4072 24.9478L101.061 27.6558" stroke="black" stroke-width="1.2" stroke-miterlimit="10" stroke-linecap="round"/>
</g>
<defs>
<clipPath id="clip0_104_663">
<rect width="120" height="120" fill="white"/>
</clipPath>
</defs>
</svg>
