<svg width="131" height="133" viewBox="0 0 131 133" fill="none" xmlns="http://www.w3.org/2000/svg">
<path d="M116.159 88.5807C123.075 77.2516 116.442 77.1164 117.857 74.5852C118.891 72.7421 119.272 65.7874 118.645 61.6833C118.337 59.6928 117.574 57.8005 116.405 56.154L107.064 44.788C104.062 34.6631 92.2968 44.788 93.5275 31.2718C93.9828 26.2585 86.4637 27.6838 82.4519 25.128C76.0157 21.0363 67.9428 25.128 60.3006 25.128C51.0586 25.128 46.6776 26.2339 39.1462 30.3133C38.2601 29.3058 37.2141 28.802 36.0819 28.716C31.0979 28.3719 24.4894 35.6953 22.545 38.5337C21.6098 39.9099 20.2807 40.856 18.8532 40.7823C15.2597 40.598 14.2999 45.1075 14.0907 48.634C14.0045 50.1085 13.6476 51.6321 12.7493 52.566C11.5433 53.8193 13.1185 60.258 13.8199 62.8384L13.3646 64.0425C10.6572 65.6153 9.4512 68.847 9.14354 72.7421L7.39606 71.9311C7.39606 71.9311 7.93753 72.5086 9.11893 73.2582C8.55284 83.3339 13.7092 97.5383 15.1859 100.008C15.6782 100.819 15.9243 101.777 15.8997 102.748C15.7766 107.86 18.8532 110.194 21.1052 111.214C22.4466 111.829 23.4434 113.07 23.7511 114.618C26.2123 127.335 49.2496 123.956 49.2496 123.956L48.5974 122.851C49.0527 122.998 49.5203 123.121 49.9757 123.256L49.2496 123.956C50.3818 128.994 69.6903 133.283 71.8439 132.459C72.6192 132.164 73.456 132.103 74.2559 132.3C75.3388 132.57 76.3849 132.754 77.3571 132.902C80.6182 133.381 83.8917 132.177 86.2299 129.646C87.6451 128.11 89.0111 126.451 89.9094 125.308C90.574 124.46 91.5092 123.907 92.5184 123.735C100.788 122.371 103.311 117.223 104.086 114.188C104.443 112.775 105.44 111.644 106.707 111.153C118.251 106.57 116.897 96.8993 115.654 92.6601C115.248 91.2839 115.47 89.7849 116.208 88.5807H116.159Z" fill="#A2B38B"/>
<path d="M38.5555 34.9826C38.5555 34.9826 37.4479 26.7131 43.5149 28.9372C44.6963 29.3672 45.9638 29.2689 47.0099 28.5808C50.148 26.5288 57.0149 23.0269 61.9866 27.647C63.3772 28.9372 65.2723 29.1952 66.8106 28.2614C71.2901 25.5458 80.0152 21.4664 85.0362 27.2661C85.7007 28.0279 86.5006 28.6423 87.4113 28.8512C89.5649 29.3427 93.5275 31.0015 93.8105 36.666C93.8844 38.0545 94.4874 39.3201 95.4719 40.1802C96.8256 41.3721 98.3146 43.5716 97.2932 47.135" stroke="#231F20" stroke-width="2" stroke-miterlimit="10" stroke-linecap="round"/>
<path d="M108.283 50.9318C108.283 50.9318 109.452 51.5093 110.178 53.0698C110.707 54.2125 111.778 54.9989 113.033 55.0604C114.288 55.1218 115.666 56.2523 115.666 60.7618" stroke="#231F20" stroke-width="2" stroke-miterlimit="10" stroke-linecap="round"/>
<path d="M117.685 68.4906C117.685 68.4906 118.128 73.0493 116.639 75.5068C115.223 77.8291 121.856 77.952 114.94 88.3964C114.202 89.5145 113.98 90.8784 114.387 92.1563C115.63 96.0638 116.983 104.972 105.44 109.187C104.172 109.654 103.176 110.686 102.819 111.988C102.043 114.778 99.5083 119.521 91.2508 120.786C90.2294 120.946 89.3065 121.45 88.6419 122.236C87.7436 123.281 86.3899 124.817 84.9623 126.23C82.6242 128.552 79.363 129.67 76.0895 129.228C75.1297 129.093 74.0713 128.921 72.9884 128.675C72.1885 128.491 71.3516 128.552 70.5763 128.822C68.4227 129.572 63.8817 130.543 62.7496 125.898" stroke="#231F20" stroke-width="2" stroke-miterlimit="10" stroke-linecap="round"/>
<path d="M36.9065 119.742C36.9065 119.742 24.9448 124.079 22.4836 112.369C22.1882 110.944 21.1791 109.801 19.8377 109.236C17.5857 108.29 14.5091 106.14 14.6322 101.433C14.6568 100.536 14.4107 99.6517 13.9184 98.9022C11.8387 95.6828 7.2115 86.6392 17.2042 81.6505" stroke="#231F20" stroke-width="2" stroke-miterlimit="10" stroke-linecap="round"/>
<path d="M12.8723 65.6768C12.8723 65.6768 9.99268 56.67 11.5063 55.2201C12.3924 54.36 12.7493 52.9592 12.8477 51.6076C13.0569 48.3637 14.0291 44.2105 17.6102 44.3825C19.0378 44.4563 20.3668 43.5838 21.3021 42.3182C23.7265 39.0497 28.4644 34.4542 33.2146 40.0696" stroke="#231F20" stroke-width="2" stroke-miterlimit="10" stroke-linecap="round"/>
<path d="M6.14087 73.0493C6.14087 73.0493 8.60212 75.5068 14.7552 76.7356" stroke="#231F20" stroke-width="2" stroke-miterlimit="10" stroke-linecap="round"/>
<path d="M12.9462 70.6901C12.9462 70.6901 14.6814 72.6438 17.1796 72.9633" stroke="#231F20" stroke-width="2" stroke-miterlimit="10" stroke-linecap="round"/>
<path d="M105.514 39.1604C105.514 39.1604 103.36 42.3306 104.591 46.0168" stroke="#231F20" stroke-width="2" stroke-miterlimit="10" stroke-linecap="round"/>
<path d="M48.3144 120.528C48.3144 120.528 45.5331 123.428 45.5331 127.114" stroke="#231F20" stroke-width="2" stroke-miterlimit="10" stroke-linecap="round"/>
<path d="M51.674 120.971C51.674 120.971 49.5327 125.886 49.988 127.114" stroke="#231F20" stroke-width="2" stroke-miterlimit="10" stroke-linecap="round"/>
<path d="M66.2692 77.9644C67.6229 86.5656 60.596 92.9674 54.0491 91.4806C48.622 90.2519 41.829 85.4352 41.829 77.9644C41.829 70.4936 47.3053 63.2194 54.0491 63.2194C60.7929 63.2194 65.1001 70.5796 66.2692 77.9644Z" fill="white" stroke="#231F20" stroke-width="2" stroke-miterlimit="10" stroke-linecap="round"/>
<path d="M93.1584 73.0494C94.4997 81.5155 87.5713 87.819 81.1228 86.3568C75.7696 85.1526 69.0873 80.3973 69.0873 73.0494C69.0873 65.7015 74.5636 59.5454 81.209 59.5454C87.8544 59.5454 92.0139 65.7752 93.1584 73.0494Z" fill="white" stroke="#231F20" stroke-width="2" stroke-miterlimit="10" stroke-linecap="round"/>
<path d="M44.2902 93.938C44.2902 93.938 54.1352 91.4805 59.0577 93.938" stroke="#231F20" stroke-width="2" stroke-miterlimit="10" stroke-linecap="round"/>
<path d="M78.7477 87.7943C78.7477 87.7943 85.3439 84.1081 91.8908 86.5656" stroke="#231F20" stroke-width="2" stroke-miterlimit="10" stroke-linecap="round"/>
<path d="M45.5209 64.4481L64.9894 75.5069" stroke="#231F20" stroke-width="2" stroke-miterlimit="10" stroke-linecap="round"/>
<path d="M84.9009 58.3043L69.0873 73.0493" stroke="#231F20" stroke-width="2" stroke-miterlimit="10" stroke-linecap="round"/>
<path d="M57.2174 71.85C58.1421 70.0356 57.7869 68.0033 56.424 67.3108C55.061 66.6184 53.2066 67.5279 52.2818 69.3423C51.3571 71.1568 51.7123 73.1891 53.0753 73.8815C54.4382 74.574 56.2927 73.6645 57.2174 71.85Z" fill="#231F20"/>
<path d="M84.4559 78.8161C85.085 76.8795 84.4157 74.9278 82.9611 74.4567C81.5065 73.9856 79.8173 75.1736 79.1883 77.1102C78.5592 79.0467 79.2285 80.9985 80.6831 81.4695C82.1377 81.9406 83.8269 80.7526 84.4559 78.8161Z" fill="#231F20"/>
<path d="M0.738403 19.488L21.5483 11.9681C22.0774 11.8329 22.1882 12.5333 21.6836 12.8036L10.9895 18.5542C10.7926 18.6648 10.8295 18.9351 11.0387 18.8982L23.6649 16.3547C24.231 16.2441 24.2679 17.0182 23.7142 17.2271L15.3705 20.3604C15.2105 20.4219 15.2105 20.643 15.3705 20.6308L24.0341 20.2376C24.5387 20.213 24.5264 20.9257 24.0095 21.1223L21.2283 22.1913C20.6991 22.4002 20.7114 23.1374 21.2283 23.076L28.5628 22.179C28.9812 22.1298 29.0428 22.6705 28.649 22.9039L23.6403 25.8407" stroke="black" stroke-width="1.2" stroke-miterlimit="10" stroke-linecap="round"/>
<path d="M81.5289 0.737305L59.8699 5.468C59.3531 5.64002 59.6238 6.30355 60.2022 6.2544L79.3753 3.62487C79.6091 3.61258 72.6684 5.67688 72.4715 5.75061L60.3991 10.3461C59.8576 10.555 60.2391 11.2431 60.8298 11.1202L69.5796 9.32627C69.7395 9.28941 78.2924 8.45386 78.157 8.53987L62.1589 13.8604C61.7159 14.1061 62.1097 14.7082 62.6511 14.6099L65.58 14.0324C66.1338 13.9218 71.2655 14.4625 70.7733 14.6836L59.3161 17.9521C58.9346 18.1364 59.1685 18.6279 59.6238 18.6156L65.4323 18.4436" stroke="black" stroke-width="1.2" stroke-miterlimit="10" stroke-linecap="round"/>
<path d="M130.262 17.9399L104.985 13.2829C104.209 13.1846 104.468 14.0325 105.292 14.3028L122.829 19.9796C123.161 20.0902 123.272 20.422 122.964 20.3974L104.739 18.7754C103.926 18.7017 104.332 19.6478 105.194 19.8322L118.091 22.646C118.337 22.6951 118.472 22.9532 118.263 22.9655L106.535 23.4693C105.846 23.4938 106.289 24.354 107.089 24.526L111.408 25.4844C112.233 25.6687 112.651 26.5657 111.913 26.5411L101.662 26.2954C101.084 26.2831 101.317 26.9343 101.97 27.1678L110.326 30.1168" stroke="black" stroke-width="1.2" stroke-miterlimit="10" stroke-linecap="round"/>
</svg>
